<svg xmlns="http://www.w3.org/2000/svg"  viewBox="0 0 50 50" width="50px" height="50px"><path d="M 15 5 C 9.4886661 5 5 9.4886661 5 15 L 5 35 C 5 40.511334 9.4886661 45 15 45 L 35 45 C 40.511334 45 45 40.511334 45 35 L 45 15 C 45 9.4886661 40.511334 5 35 5 L 15 5 z M 15 7 L 35 7 C 39.430666 7 43 10.569334 43 15 L 43 35 C 43 39.430666 39.430666 43 35 43 L 15 43 C 10.569334 43 7 39.430666 7 35 L 7 15 C 7 10.569334 10.569334 7 15 7 z M 37 11 A 2 2 0 0 0 37 15 A 2 2 0 0 0 37 11 z M 25 14 C 18.936709 14 14 18.936713 14 25 C 14 31.063287 18.936709 36 25 36 C 31.063291 36 36 31.063287 36 25 C 36 18.936713 31.063291 14 25 14 z M 25 16 C 29.982411 16 34 20.017592 34 25 C 34 29.982408 29.982411 34 25 34 C 20.017589 34 16 29.982408 16 25 C 16 20.017592 20.017589 16 25 16 z"/></svg>